{
    "accessors": {
        "accessor_101": {
            "bufferView": "bufferView_104",
            "byteOffset": 132864,
            "byteStride": 8,
            "componentType": 5126,
            "count": 5536,
            "max": [
                0.995487,
                0.995487
            ],
            "min": [
                0.00453418,
                -0.2177
            ],
            "type": "VEC2"
        },
        "accessor_21": {
            "bufferView": "bufferView_103",
            "byteOffset": 18336,
            "byteStride": 0,
            "componentType": 5123,
            "count": 2688,
            "type": "SCALAR"
        },
        "accessor_23": {
            "bufferView": "bufferView_104",
            "byteOffset": 187576,
            "byteStride": 12,
            "componentType": 5126,
            "count": 1792,
            "max": [
                0.990921,
                21.1857,
                0.950031
            ],
            "min": [
                -0.990921,
                19.5575,
                -0.375071
            ],
            "type": "VEC3"
        },
        "accessor_25": {
            "bufferView": "bufferView_104",
            "byteOffset": 209080,
            "byteStride": 12,
            "componentType": 5126,
            "count": 1792,
            "max": [
                0.999359,
                0.999969,
                0.999969
            ],
            "min": [
                -0.999359,
                0.00549328,
                -0.999969
            ],
            "type": "VEC3"
        },
        "accessor_27": {
            "bufferView": "bufferView_104",
            "byteOffset": 230584,
            "byteStride": 8,
            "componentType": 5126,
            "count": 1792,
            "max": [
                0.977386,
                0.995486
            ],
            "min": [
                0.00455534,
                -0.17245
            ],
            "type": "VEC2"
        },
        "accessor_48": {
            "bufferView": "bufferView_103",
            "byteOffset": 17568,
            "byteStride": 0,
            "componentType": 5123,
            "count": 384,
            "type": "SCALAR"
        },
        "accessor_50": {
            "bufferView": "bufferView_104",
            "byteOffset": 179384,
            "byteStride": 12,
            "componentType": 5126,
            "count": 256,
            "max": [
                0.849646,
                -6.8116,
                0.728469
            ],
            "min": [
                -0.849646,
                -9.71261,
                -0.535266
            ],
            "type": "VEC3"
        },
        "accessor_52": {
            "bufferView": "bufferView_104",
            "byteOffset": 182456,
            "byteStride": 12,
            "componentType": 5126,
            "count": 256,
            "max": [
                0.945402,
                -0.106906,
                0.965056
            ],
            "min": [
                -0.945402,
                -0.949492,
                -0.994263
            ],
            "type": "VEC3"
        },
        "accessor_54": {
            "bufferView": "bufferView_104",
            "byteOffset": 185528,
            "byteStride": 8,
            "componentType": 5126,
            "count": 256,
            "max": [
                0.506648,
                0.991426
            ],
            "min": [
                0.0055275,
                -0.17972
            ],
            "type": "VEC2"
        },
        "accessor_70": {
            "bufferView": "bufferView_103",
            "byteOffset": 16608,
            "byteStride": 0,
            "componentType": 5123,
            "count": 480,
            "type": "SCALAR"
        },
        "accessor_72": {
            "bufferView": "bufferView_104",
            "byteOffset": 177152,
            "byteStride": 12,
            "componentType": 5126,
            "count": 93,
            "max": [
                0.763772,
                0.415268,
                1.97991
            ],
            "min": [
                -0.763772,
                -5.02327,
                1.11479
            ],
            "type": "VEC3"
        },
        "accessor_74": {
            "bufferView": "bufferView_104",
            "byteOffset": 178268,
            "byteStride": 12,
            "componentType": 5126,
            "count": 93,
            "max": [
                0.864559,
                0.44554,
                0.999085
            ],
            "min": [
                -0.864559,
                -0.369915,
                0.501938
            ],
            "type": "VEC3"
        },
        "accessor_95": {
            "bufferView": "bufferView_103",
            "byteOffset": 0,
            "byteStride": 0,
            "componentType": 5123,
            "count": 8304,
            "type": "SCALAR"
        },
        "accessor_97": {
            "bufferView": "bufferView_104",
            "byteOffset": 0,
            "byteStride": 12,
            "componentType": 5126,
            "count": 5536,
            "max": [
                12.2596,
                21.3487,
                5.90701
            ],
            "min": [
                -12.2596,
                -6.8116,
                -1.84966
            ],
            "type": "VEC3"
        },
        "accessor_99": {
            "bufferView": "bufferView_104",
            "byteOffset": 66432,
            "byteStride": 12,
            "componentType": 5126,
            "count": 5536,
            "max": [
                0.999969,
                0.997681,
                0.999969
            ],
            "min": [
                -0.999969,
                -0.993255,
                -0.999969
            ],
            "type": "VEC3"
        }
    },
    "animations": {},
    "asset": {
        "generator": "collada2gltf@f276333957743f3a823db04d202ce9abbbfe6a7f",
        "premultipliedAlpha": true,
        "profile": "WebGL 1.0.2",
        "version": 0.8
    },
    "bufferViews": {
        "bufferView_103": {
            "buffer": "Model",
            "byteLength": 23712,
            "byteOffset": 0,
            "target": 34963
        },
        "bufferView_104": {
            "buffer": "Model",
            "byteLength": 244920,
            "byteOffset": 23712,
            "target": 34962
        }
    },
    "buffers": {
        "Model": {
            "byteLength": 268632,
            "type": "arraybuffer",
            "uri": "data:application/octet-stream;base64,"
        }
    },
    "cameras": {
        "camera_0": {
            "perspective": {
                "aspect_ratio": 1,
                "xfov": 49.1343,
                "zfar": 100,
                "znear": 0.1
            },
            "type": "perspective"
        }
    },
    "images": {
        "aircraft_tex_jpg": {
            "uri": "textures/aircraft%20tex.jpg"
        }
    },
    "lights": {
        "Lamp-light": {
            "directional": {
                "color": [
                    2.26,
                    2.03786,
                    1.53429
                ]
            },
            "type": "directional"
        },
        "Lamp_001-light": {
            "ambient": {
                "color": [
                    0.19902,
                    0.213595,
                    0.24
                ]
            },
            "type": "ambient"
        },
        "Lamp_002-light": {
            "ambient": {
                "color": [
                    0.551138,
                    0.595619,
                    0.68
                ]
            },
            "type": "ambient"
        }
    },
    "materials": {
        "Material-effect": {
            "instanceTechnique": {
                "technique": "technique0",
                "values": {
                    "ambient": [
                        0,
                        0,
                        0,
                        1
                    ],
                    "diffuse": [
                        0.568434,
                        0.568434,
                        0.568434,
                        1
                    ],
                    "emission": [
                        0,
                        0,
                        0,
                        1
                    ],
                    "shininess": 50,
                    "specular": [
                        0.324074,
                        0.324074,
                        0.324074,
                        1
                    ]
                }
            },
            "name": "Material"
        },
        "cockpit-effect": {
            "instanceTechnique": {
                "technique": "technique0",
                "values": {
                    "ambient": [
                        0,
                        0,
                        0,
                        1
                    ],
                    "diffuse": [
                        0.0117346,
                        0.0117346,
                        0.0117346,
                        1
                    ],
                    "emission": [
                        0,
                        0,
                        0,
                        1
                    ],
                    "shininess": 124,
                    "specular": [
                        0.5,
                        0.5,
                        0.5,
                        1
                    ]
                }
            },
            "name": "cockpit"
        },
        "nose-effect": {
            "instanceTechnique": {
                "technique": "technique0",
                "values": {
                    "ambient": [
                        0,
                        0,
                        0,
                        1
                    ],
                    "diffuse": [
                        0.0255132,
                        0.0255132,
                        0.0255132,
                        1
                    ],
                    "emission": [
                        0,
                        0,
                        0,
                        1
                    ],
                    "shininess": 74,
                    "specular": [
                        0.354662,
                        0.354662,
                        0.354662,
                        1
                    ]
                }
            },
            "name": "nose"
        }
    },
    "meshes": {
        "Cube-mesh": {
            "name": "Cube-mesh",
            "primitives": [
                {
                    "attributes": {
                        "NORMAL": "accessor_99",
                        "POSITION": "accessor_97",
                        "TEXCOORD_0": "accessor_101"
                    },
                    "indices": "accessor_95",
                    "material": "Material-effect",
                    "primitive": 4
                }
            ]
        },
        "Cube_001-mesh": {
            "name": "Cube_001-mesh",
            "primitives": [
                {
                    "attributes": {
                        "NORMAL": "accessor_74",
                        "POSITION": "accessor_72"
                    },
                    "indices": "accessor_70",
                    "material": "cockpit-effect",
                    "primitive": 4
                }
            ]
        },
        "Cube_002-mesh": {
            "name": "Cube_002-mesh",
            "primitives": [
                {
                    "attributes": {
                        "NORMAL": "accessor_52",
                        "POSITION": "accessor_50",
                        "TEXCOORD_0": "accessor_54"
                    },
                    "indices": "accessor_48",
                    "material": "nose-effect",
                    "primitive": 4
                }
            ]
        },
        "Cube_003-mesh": {
            "name": "Cube_003-mesh",
            "primitives": [
                {
                    "attributes": {
                        "NORMAL": "accessor_25",
                        "POSITION": "accessor_23",
                        "TEXCOORD_0": "accessor_27"
                    },
                    "indices": "accessor_21",
                    "material": "nose-effect",
                    "primitive": 4
                }
            ]
        }
    },
    "nodes": {
        "Camera": {
            "camera": "camera_0",
            "children": [],
            "matrix": [
                0.660229,
                0.70191,
                0.267245,
                0,
                -0.568804,
                0.234924,
                0.788209,
                0,
                0.490469,
                -0.672408,
                0.554353,
                0,
                18.6626,
                -19.3783,
                19.4595,
                1
            ],
            "name": "Camera"
        },
        "Cube": {
            "children": [],
            "matrix": [
                1,
                0,
                0,
                0,
                0,
                1,
                0,
                0,
                0,
                0,
                1,
                0,
                0,
                0,
                0,
                1
            ],
            "meshes": [
                "Cube-mesh"
            ],
            "name": "Cube"
        },
        "Cube_001": {
            "children": [],
            "matrix": [
                1,
                0,
                0,
                0,
                0,
                1,
                0,
                0,
                0,
                0,
                1,
                0,
                0,
                0,
                0,
                1
            ],
            "meshes": [
                "Cube_001-mesh"
            ],
            "name": "Cube_001"
        },
        "Cube_002": {
            "children": [],
            "matrix": [
                1,
                0,
                0,
                0,
                0,
                1,
                0,
                0,
                0,
                0,
                1,
                0,
                0,
                0,
                0,
                1
            ],
            "meshes": [
                "Cube_002-mesh"
            ],
            "name": "Cube_002"
        },
        "Cube_003": {
            "children": [],
            "matrix": [
                1,
                0,
                0,
                0,
                0,
                1,
                0,
                0,
                0,
                0,
                1,
                0,
                0,
                0,
                0,
                1
            ],
            "meshes": [
                "Cube_003-mesh"
            ],
            "name": "Cube_003"
        },
        "Lamp": {
            "children": [],
            "light": "Lamp-light",
            "matrix": [
                1.31863,
                1.54967,
                -0.991093,
                0,
                0.227819,
                1.07247,
                1.98001,
                0,
                1.82533,
                -1.25334,
                0.468847,
                0,
                27.6662,
                -12.2049,
                5.90386,
                1
            ],
            "name": "Lamp"
        },
        "Lamp_001": {
            "children": [],
            "light": "Lamp_001-light",
            "matrix": [
                -0.376017,
                -1.59514,
                -0.844394,
                0,
                0.0501824,
                -0.871431,
                1.62387,
                0,
                -1.80415,
                0.308217,
                0.221155,
                0,
                -45.2193,
                8.58704,
                5.90386,
                1
            ],
            "name": "Lamp_001"
        },
        "Lamp_002": {
            "children": [],
            "light": "Lamp_002-light",
            "matrix": [
                -0.65271,
                2.00396,
                -1.02656,
                0,
                -0.822978,
                0.782535,
                2.05086,
                0,
                2.0958,
                0.931393,
                0.485624,
                0,
                40.8144,
                24.0097,
                5.90386,
                1
            ],
            "name": "Lamp_002"
        },
        "node_8": {
            "children": [
                "Lamp_002",
                "Lamp_001",
                "Cube_003",
                "Cube_002",
                "Cube_001",
                "Cube",
                "Lamp",
                "Camera"
            ],
            "matrix": [
                1,
                0,
                0,
                0,
                0,
                0,
                -1,
                0,
                0,
                1,
                0,
                0,
                0,
                0,
                0,
                1
            ],
            "name": "Y_UP_Transform"
        }
    },
    "programs": {
        "program_0": {
            "attributes": [
                "a_normal",
                "a_position"
            ],
            "fragmentShader": "Model0FS",
            "vertexShader": "Model0VS"
        }
    },
    "scene": "defaultScene",
    "scenes": {
        "defaultScene": {
            "nodes": [
                "node_8"
            ]
        }
    },
    "shaders": {
        "Model0FS": {
            "type": 35632,
            "uri": "data:text/plain;base64,"
        },
        "Model0VS": {
            "type": 35633,
            "uri": "data:text/plain;base64,"
        }
    },
    "skins": {},
    "techniques": {
        "technique0": {
            "parameters": {
                "ambient": {
                    "type": 35666
                },
                "diffuse": {
                    "type": 35666
                },
                "emission": {
                    "type": 35666
                },
                "light0Color": {
                    "type": 35665,
                    "value": [
                        0.551138,
                        0.595619,
                        0.68
                    ]
                },
                "light1Color": {
                    "type": 35665,
                    "value": [
                        0.19902,
                        0.213595,
                        0.24
                    ]
                },
                "light2Color": {
                    "type": 35665,
                    "value": [
                        2.26,
                        2.03786,
                        1.53429
                    ]
                },
                "light2Transform": {
                    "semantic": "MODELVIEW",
                    "source": "Lamp",
                    "type": 35676
                },
                "modelViewMatrix": {
                    "semantic": "MODELVIEW",
                    "type": 35676
                },
                "normal": {
                    "semantic": "NORMAL",
                    "type": 35665
                },
                "normalMatrix": {
                    "semantic": "MODELVIEWINVERSETRANSPOSE",
                    "type": 35675
                },
                "position": {
                    "semantic": "POSITION",
                    "type": 35665
                },
                "projectionMatrix": {
                    "semantic": "PROJECTION",
                    "type": 35676
                },
                "shininess": {
                    "type": 5126
                },
                "specular": {
                    "type": 35666
                }
            },
            "pass": "defaultPass",
            "passes": {
                "defaultPass": {
                    "details": {
                        "commonProfile": {
                            "extras": {
                                "doubleSided": true
                            },
                            "lightingModel": "Phong",
                            "parameters": [
                                "ambient",
                                "diffuse",
                                "emission",
                                "light0Color",
                                "light1Color",
                                "light2Color",
                                "light2Transform",
                                "modelViewMatrix",
                                "normalMatrix",
                                "projectionMatrix",
                                "shininess",
                                "specular"
                            ]
                        },
                        "type": "COLLADA-1.4.1/commonProfile"
                    },
                    "instanceProgram": {
                        "attributes": {
                            "a_normal": "normal",
                            "a_position": "position"
                        },
                        "program": "program_0",
                        "uniforms": {
                            "u_ambient": "ambient",
                            "u_diffuse": "diffuse",
                            "u_emission": "emission",
                            "u_light0Color": "light0Color",
                            "u_light1Color": "light1Color",
                            "u_light2Color": "light2Color",
                            "u_light2Transform": "light2Transform",
                            "u_modelViewMatrix": "modelViewMatrix",
                            "u_normalMatrix": "normalMatrix",
                            "u_projectionMatrix": "projectionMatrix",
                            "u_shininess": "shininess",
                            "u_specular": "specular"
                        }
                    },
                    "states": {
                        "enable": [
                            2929
                        ]
                    }
                }
            }
        }
    }
}