<svg xmlns="http://www.w3.org/2000/svg" viewBox="0 0 479.28 471.81"><defs><style>.cls-1{fill:#fff;}.cls-2{fill:#e74c3c;}.cls-3{fill:#fcfcfc;}</style></defs><title>Asset 3</title><g id="Layer_2" data-name="Layer 2"><g id="Layer_2-2" data-name="Layer 2"><g id="body"><path class="cls-1" d="M124.77,314.88a11,11,0,0,1-9.44-16.43l22.61-39.28a141.88,141.88,0,0,0,0-141.14L115.33,78.74A10.94,10.94,0,0,1,130.27,63.8l39.29,22.61a141.86,141.86,0,0,0,141.13,0L350,63.8a10.94,10.94,0,0,1,14.95,14.94L342.31,118a141.88,141.88,0,0,0,0,141.14l22.62,39.28A10.95,10.95,0,0,1,350,313.4l-39.29-22.62a141.86,141.86,0,0,0-141.13,0L130.27,313.4A11,11,0,0,1,124.77,314.88Zm0-246.36a4.76,4.76,0,0,0-3.31,1.42,4.59,4.59,0,0,0-.75,5.7l22.62,39.28a148.14,148.14,0,0,1,0,147.35l-22.62,39.29a4.71,4.71,0,0,0,6.44,6.44l39.29-22.62a148.14,148.14,0,0,1,147.35,0L353.09,308a4.71,4.71,0,0,0,6.44-6.44l-22.62-39.29a148.14,148.14,0,0,1,0-147.35l22.62-39.28a4.72,4.72,0,0,0-6.44-6.45L313.8,91.81l-1.55-2.7,1.55,2.7a148.14,148.14,0,0,1-147.35,0L127.16,69.19A4.67,4.67,0,0,0,124.78,68.52Z"/></g><g id="rotors"><path class="cls-2" d="M359.39,378a3.11,3.11,0,0,1-.17-6.22,66.86,66.86,0,0,0,30.92-9.59,3.11,3.11,0,1,1,3.23,5.32A73.18,73.18,0,0,1,359.57,378Zm-33.29-6.31a3.08,3.08,0,0,1-1.31-.29,73.84,73.84,0,0,1-25.68-19.76,3.11,3.11,0,0,1,4.8-4,67.42,67.42,0,0,0,23.49,18.08,3.11,3.11,0,0,1-1.3,5.94Zm89.52-27.79a3,3,0,0,1-1.59-.44,3.11,3.11,0,0,1-1.08-4.27,67,67,0,0,0,9.32-31,3.11,3.11,0,1,1,6.21.3,73,73,0,0,1-10.19,33.89A3.09,3.09,0,0,1,415.62,343.9Zm3.16-65.69a3.11,3.11,0,0,1-2.81-1.78,67.39,67.39,0,0,0-20.51-25.08,3.11,3.11,0,1,1,3.73-5,73.57,73.57,0,0,1,22.4,27.4,3.11,3.11,0,0,1-1.48,4.14A3.14,3.14,0,0,1,418.78,278.21Z"/><path class="cls-2" d="M121.22,376.93h-.15a73.28,73.28,0,0,1-33.9-10.19,3.11,3.11,0,0,1,3.19-5.35,66.84,66.84,0,0,0,31,9.32,3.11,3.11,0,0,1-.14,6.22Zm33.24-6.59a3.11,3.11,0,0,1-1.33-5.93,67.31,67.31,0,0,0,25.07-20.5,3.11,3.11,0,1,1,5,3.73,73.57,73.57,0,0,1-27.4,22.4A3.13,3.13,0,0,1,154.46,370.34Zm-89.76-27a3.13,3.13,0,0,1-2.66-1.5A73.09,73.09,0,0,1,51.56,308a3.11,3.11,0,1,1,6.21-.35,67,67,0,0,0,9.59,30.92,3.12,3.12,0,0,1-2.66,4.73ZM61,277.66a3,3,0,0,1-1.3-.29,3.11,3.11,0,0,1-1.52-4.13,73.94,73.94,0,0,1,19.76-25.68,3.11,3.11,0,1,1,4,4.79,67.58,67.58,0,0,0-18.09,23.5A3.1,3.1,0,0,1,61,277.66Z"/><path class="cls-2" d="M83.78,132.25a3.08,3.08,0,0,1-1.86-.62,73.59,73.59,0,0,1-22.41-27.4,3.11,3.11,0,0,1,5.63-2.66,67.46,67.46,0,0,0,20.5,25.08,3.11,3.11,0,0,1-1.86,5.6ZM55.73,72.77h-.15a3.12,3.12,0,0,1-3-3.26A73.28,73.28,0,0,1,62.81,35.62a3.11,3.11,0,0,1,5.35,3.19,66.84,66.84,0,0,0-9.32,31A3.11,3.11,0,0,1,55.73,72.77ZM179.6,31.46a3.07,3.07,0,0,1-2.4-1.13,67.58,67.58,0,0,0-23.5-18.08,3.11,3.11,0,1,1,2.61-5.65A73.75,73.75,0,0,1,182,26.36a3.11,3.11,0,0,1-.41,4.38A3,3,0,0,1,179.6,31.46ZM89.35,16.26a3.11,3.11,0,0,1-1.62-5.77A73.26,73.26,0,0,1,121.53,0a3.11,3.11,0,1,1,.35,6.22A66.78,66.78,0,0,0,91,15.81,3.2,3.2,0,0,1,89.35,16.26Z"/><path class="cls-2" d="M401.21,131.15a3.11,3.11,0,0,1-2-5.5,67.7,67.7,0,0,0,18.09-23.5,3.11,3.11,0,1,1,5.64,2.61,73.63,73.63,0,0,1-19.76,25.68A3.09,3.09,0,0,1,401.21,131.15Zm25.23-57.88a3.12,3.12,0,0,1-3.11-2.94,67,67,0,0,0-9.58-30.92,3.11,3.11,0,1,1,5.31-3.23A73.14,73.14,0,0,1,429.55,70a3.11,3.11,0,0,1-2.94,3.28Zm-126-37.93a3.08,3.08,0,0,1-1.86-.62,3.11,3.11,0,0,1-.63-4.36A73.74,73.74,0,0,1,325.32,8,3.11,3.11,0,0,1,328,13.59a67.16,67.16,0,0,0-25.07,20.5A3.11,3.11,0,0,1,300.41,35.34Zm91.92-18.29a3.18,3.18,0,0,1-1.59-.44,66.84,66.84,0,0,0-31-9.32,3.12,3.12,0,0,1-3-3.26,3.09,3.09,0,0,1,3.26-3,73.13,73.13,0,0,1,33.89,10.19,3.11,3.11,0,0,1-1.6,5.79Z"/></g><g id="wings_bot" data-name="wings bot"><path class="cls-1" d="M143.51,202.87v.07a3.07,3.07,0,0,1-3.08,2.82H84.78a3.07,3.07,0,0,1-3.08-3.08v-.06a3.08,3.08,0,0,1,3.08-3.08h55.66A3.09,3.09,0,0,1,143.51,202.87Z"/><path class="cls-1" d="M397.58,202.62v.06a3.07,3.07,0,0,1-3.08,3.08H339.81a3.07,3.07,0,0,1-3.07-2.82v-.07a3.09,3.09,0,0,1,3.08-3.33H394.5A3.08,3.08,0,0,1,397.58,202.62Z"/></g><g id="wings_mid" data-name="wings mid"><path class="cls-1" d="M144.06,188.59v.11a3.07,3.07,0,0,1-3.08,3.06H47.43a3.08,3.08,0,0,1-3.08-3.08v-.06a3.08,3.08,0,0,1,3.08-3.08H141A3.07,3.07,0,0,1,144.06,188.59Z"/><path class="cls-1" d="M434.93,188.62v.06a3.08,3.08,0,0,1-3.08,3.08H339.27a3.07,3.07,0,0,1-3.08-3.06v-.11a3.07,3.07,0,0,1,3.08-3.05h92.58A3.08,3.08,0,0,1,434.93,188.62Z"/></g><g id="wings_top" data-name="wings top"><path class="cls-1" d="M140.45,177.76H10.09A3.08,3.08,0,0,1,7,174.67v-.06a3.08,3.08,0,0,1,3.08-3.08H140.45a3.08,3.08,0,0,1,3.07,2.82v.06A3.09,3.09,0,0,1,140.45,177.76Z"/><path class="cls-1" d="M472.27,174.61v.06a3.08,3.08,0,0,1-3.08,3.09H339.79a3.1,3.1,0,0,1-3.07-3.35v-.06a3.07,3.07,0,0,1,3.07-2.82H469.19A3.08,3.08,0,0,1,472.27,174.61Z"/></g><path class="cls-3" d="M27.6,440.85a9,9,0,0,1,2.64,6.38A9.1,9.1,0,0,1,25,455.49a7.92,7.92,0,0,1-2.59.72h-.29v.05H6v15.46H0V438.11H21.17a9,9,0,0,1,6.38,2.64ZM22.46,450a3.05,3.05,0,0,0,1.83-2.79,3.17,3.17,0,0,0-.91-2.2,3,3,0,0,0-2.16-.87H6v6.19H21.22a2.78,2.78,0,0,0,1.24-.28Z"/><path class="cls-3" d="M62.11,465.81l3.08,6H58.46l-3.07-6-3.21-6.29-.15-.28a5.94,5.94,0,0,0-5.09-2.88h-6v15.45h-6v-33.6H56.16a9,9,0,0,1,9,9,9.1,9.1,0,0,1-5.28,8.26,8.05,8.05,0,0,1-2.6.72Zm-6-15.46a2.82,2.82,0,0,0,1.25-.28,3.06,3.06,0,0,0,1.82-2.79,3.17,3.17,0,0,0-.91-2.21,3,3,0,0,0-2.16-.86H40.94v6.19Z"/><path class="cls-3" d="M102.48,454.92a16.8,16.8,0,1,1-16.8-16.81A16.82,16.82,0,0,1,102.48,454.92Zm-6,0a10.8,10.8,0,1,0-10.8,10.8A10.82,10.82,0,0,0,96.48,454.92Z"/><path class="cls-3" d="M139.73,438.11v24.53a9.05,9.05,0,0,1-9.07,9H115.2a9.05,9.05,0,0,1-9.07-9v-6.28h6v6.28a3.1,3.1,0,0,0,3.07,3.08h15.46a3.1,3.1,0,0,0,3.07-3.08V438.11Z"/><path class="cls-3" d="M150.53,447.19v3.12h21.6v6h-21.6v6.33a3.1,3.1,0,0,0,3.07,3.08h24.53v6H153.6a9.06,9.06,0,0,1-9-9.08V447.19a9.06,9.06,0,0,1,9-9.08h24.53v6H153.6A3.1,3.1,0,0,0,150.53,447.19Z"/><path class="cls-3" d="M185.81,454.92a10.81,10.81,0,0,0,10.8,10.8h16.8v6h-16.8a16.81,16.81,0,0,1,0-33.61h16.8v6h-16.8A10.81,10.81,0,0,0,185.81,454.92Z"/><path class="cls-3" d="M251.76,438.16v6H238v27.6h-6v-27.6H218.21v-6Z"/><path class="cls-3" d="M313.63,438.11v6H289.1a3.1,3.1,0,0,0-3.07,3.08v3.12h21.6v6H286v15.41h-6V447.19a9.05,9.05,0,0,1,9-9.08Z"/><path class="cls-3" d="M343.34,471.72h-6.72l-3.07-6-7.34-14.4-7.35,14.4-3.07,6h-6.72l3.07-6,14.07-27.61,14.06,27.61Z"/><path class="cls-3" d="M372.67,465.76v6h-17a10.42,10.42,0,0,1-4.7-1.1,10.61,10.61,0,0,1-4.85-4.9,10.43,10.43,0,0,1-1.11-4.7v-22.9h6v23.48a4.79,4.79,0,0,0,4.08,4.08Z"/><path class="cls-3" d="M379.29,454.92a10.82,10.82,0,0,0,10.8,10.8H406.9v6H390.09a16.81,16.81,0,0,1,0-33.61H406.9v6H390.09A10.82,10.82,0,0,0,379.29,454.92Z"/><path class="cls-3" d="M442,454.92a16.8,16.8,0,1,1-16.8-16.81A16.82,16.82,0,0,1,442,454.92Zm-6,0a10.8,10.8,0,1,0-10.8,10.8A10.82,10.82,0,0,0,436,454.92Z"/><path class="cls-3" d="M479.28,438.16v33.6l-6-4.6-21.6-16.66v21.26h-6v-33.5l6,4.61,21.6,16.65V438.11Z"/></g></g></svg>
