<svg xmlns="http://www.w3.org/2000/svg" viewBox="0 0 502.9 494.5"><defs><style>.cls-1{fill:#fff;}.cls-2{fill:#e74c3c;}</style></defs><title>Asset 6</title><g id="Layer_2" data-name="Layer 2"><g id="Layer_2-2" data-name="Layer 2"><rect width="502.9" height="494.5" transform="translate(502.9 494.5) rotate(180)"/><g id="body"><path class="cls-1" d="M136.58,373.13a11,11,0,0,1-9.44-16.43l22.61-39.28a141.88,141.88,0,0,0,0-141.14L127.14,137a10.94,10.94,0,0,1,14.94-14.94l39.29,22.61a141.86,141.86,0,0,0,141.13,0l39.29-22.61A10.94,10.94,0,0,1,376.74,137l-22.62,39.29a141.88,141.88,0,0,0,0,141.14l22.62,39.28a10.95,10.95,0,0,1-14.95,14.95L322.5,349a141.86,141.86,0,0,0-141.13,0l-39.29,22.62A11,11,0,0,1,136.58,373.13Zm0-246.36a4.76,4.76,0,0,0-3.31,1.42,4.59,4.59,0,0,0-.75,5.7l22.62,39.28a148.14,148.14,0,0,1,0,147.35l-22.62,39.29a4.71,4.71,0,0,0,6.44,6.44l39.29-22.62a148.14,148.14,0,0,1,147.35,0l39.29,22.62a4.71,4.71,0,0,0,6.44-6.44l-22.62-39.29a148.14,148.14,0,0,1,0-147.35l22.62-39.28a4.72,4.72,0,0,0-6.44-6.45l-39.29,22.62-1.55-2.7,1.55,2.7a148.14,148.14,0,0,1-147.35,0L139,127.44A4.67,4.67,0,0,0,136.59,126.77Z"/></g><g id="rotors"><path class="cls-2" d="M371.2,436.25A3.11,3.11,0,0,1,371,430,66.86,66.86,0,0,0,402,420.44a3.11,3.11,0,1,1,3.23,5.32,73.18,73.18,0,0,1-33.8,10.49Zm-33.29-6.31a3.08,3.08,0,0,1-1.31-.29,73.84,73.84,0,0,1-25.68-19.76,3.11,3.11,0,0,1,4.8-4A67.42,67.42,0,0,0,339.21,424a3.11,3.11,0,0,1-1.3,5.94Zm89.52-27.79a3,3,0,0,1-1.59-.44,3.11,3.11,0,0,1-1.08-4.27,67,67,0,0,0,9.32-31,3.11,3.11,0,1,1,6.21.3,73,73,0,0,1-10.19,33.89A3.09,3.09,0,0,1,427.43,402.15Zm3.16-65.69a3.1,3.1,0,0,1-2.81-1.78,67.39,67.39,0,0,0-20.51-25.08,3.11,3.11,0,1,1,3.73-5A73.57,73.57,0,0,1,433.4,332a3.11,3.11,0,0,1-1.48,4.14A3.14,3.14,0,0,1,430.59,336.46Z"/><path class="cls-2" d="M133,435.18h-.15A73.28,73.28,0,0,1,99,425a3.11,3.11,0,0,1,3.19-5.35,66.84,66.84,0,0,0,31,9.32,3.11,3.11,0,0,1-.14,6.22Zm33.24-6.59a3.11,3.11,0,0,1-1.33-5.93A67.31,67.31,0,0,0,190,402.16a3.11,3.11,0,1,1,5,3.73,73.57,73.57,0,0,1-27.4,22.4A3.13,3.13,0,0,1,166.27,428.59Zm-89.76-27a3.13,3.13,0,0,1-2.66-1.5,73.09,73.09,0,0,1-10.48-33.8,3.11,3.11,0,1,1,6.21-.35,67,67,0,0,0,9.59,30.92,3.12,3.12,0,0,1-2.66,4.73Zm-3.73-65.66a3,3,0,0,1-1.3-.29A3.11,3.11,0,0,1,70,331.49a73.94,73.94,0,0,1,19.76-25.68,3.11,3.11,0,1,1,4,4.79,67.58,67.58,0,0,0-18.09,23.5A3.12,3.12,0,0,1,72.78,335.91Z"/><path class="cls-2" d="M95.59,190.5a3.08,3.08,0,0,1-1.86-.62,73.59,73.59,0,0,1-22.41-27.4A3.11,3.11,0,0,1,77,159.82a67.46,67.46,0,0,0,20.5,25.08,3.11,3.11,0,0,1-1.86,5.6ZM67.54,131h-.15a3.12,3.12,0,0,1-3-3.26A73.28,73.28,0,0,1,74.62,93.87,3.11,3.11,0,0,1,80,97.06a66.84,66.84,0,0,0-9.32,31A3.11,3.11,0,0,1,67.54,131ZM191.41,89.71a3.07,3.07,0,0,1-2.4-1.13,67.58,67.58,0,0,0-23.5-18.08,3.11,3.11,0,1,1,2.61-5.65A73.75,73.75,0,0,1,193.8,84.61a3.11,3.11,0,0,1-.41,4.38A3,3,0,0,1,191.41,89.71Zm-90.25-15.2a3.11,3.11,0,0,1-1.62-5.77,73.26,73.26,0,0,1,33.8-10.49,3.11,3.11,0,1,1,.35,6.22,66.78,66.78,0,0,0-30.91,9.59A3.2,3.2,0,0,1,101.16,74.51Z"/><path class="cls-2" d="M413,189.4a3.11,3.11,0,0,1-2-5.5,67.55,67.55,0,0,0,18.08-23.5,3.11,3.11,0,1,1,5.65,2.61A73.63,73.63,0,0,1,415,188.69,3.09,3.09,0,0,1,413,189.4Zm25.23-57.88a3.12,3.12,0,0,1-3.11-2.94,67,67,0,0,0-9.58-30.92,3.11,3.11,0,1,1,5.31-3.23,73.14,73.14,0,0,1,10.49,33.8,3.11,3.11,0,0,1-2.94,3.28Zm-126-37.93a3.08,3.08,0,0,1-1.86-.62,3.11,3.11,0,0,1-.63-4.36,73.74,73.74,0,0,1,27.4-22.4,3.11,3.11,0,0,1,2.66,5.63,67.16,67.16,0,0,0-25.07,20.5A3.11,3.11,0,0,1,312.22,93.59ZM404.14,75.3a3.18,3.18,0,0,1-1.59-.44,66.84,66.84,0,0,0-31-9.32,3.12,3.12,0,0,1-3-3.26,3.09,3.09,0,0,1,3.26-3,73.13,73.13,0,0,1,33.89,10.19,3.11,3.11,0,0,1-1.6,5.79Z"/></g><g id="wings_bot" data-name="wings bot"><path class="cls-1" d="M155.32,261.12v.07a3.07,3.07,0,0,1-3.08,2.82H96.59a3.07,3.07,0,0,1-3.08-3.08v-.06a3.08,3.08,0,0,1,3.08-3.08h55.66A3.09,3.09,0,0,1,155.32,261.12Z"/><path class="cls-1" d="M409.39,260.87v.06a3.07,3.07,0,0,1-3.08,3.08H351.62a3.07,3.07,0,0,1-3.07-2.82v-.07a3.09,3.09,0,0,1,3.08-3.33h54.69A3.08,3.08,0,0,1,409.39,260.87Z"/></g><g id="wings_mid" data-name="wings mid"><rect class="cls-1" x="56.16" y="243.79" width="99.71" height="6.22" rx="3.08" ry="3.08"/><rect class="cls-1" x="348" y="243.79" width="98.74" height="6.22" rx="3.08" ry="3.08"/></g><g id="wings_top" data-name="wings top"><path class="cls-1" d="M152.26,236H21.9a3.08,3.08,0,0,1-3.08-3.09v-.06a3.08,3.08,0,0,1,3.08-3.08H152.26a3.08,3.08,0,0,1,3.07,2.82v.06A3.09,3.09,0,0,1,152.26,236Z"/><path class="cls-1" d="M484.08,232.86v.06A3.08,3.08,0,0,1,481,236H351.6a3.1,3.1,0,0,1-3.07-3.35v-.06a3.07,3.07,0,0,1,3.07-2.82H481A3.08,3.08,0,0,1,484.08,232.86Z"/></g></g></g></svg>