<svg xmlns="http://www.w3.org/2000/svg" width="1280" height="349" fill="#fff" xmlns:v="https://vecta.io/nano"><path d="M215 4h2l3.813 9.875 1.08 2.781c2.044 5.326 3.872 10.645 5.415 16.138.7 2.23 1.572 4.28 2.567 6.393 2.029 4.387 3.508 8.882 4.994 13.477 1.808 5.515 3.849 10.923 5.943 16.335 3.322 8.597 6.401 17.26 9.398 25.975 1.681 4.878 3.401 9.723 5.29 14.525 2.288 5.821 4.335 11.714 6.375 17.625l13.281 36.582a1363.68 1363.68 0 0 1 13.919 38.626l2.756 7.815.857 2.399 1.585 4.404C296 221.78 296 221.78 296 224h2l.445-1.73c1.705-6.164 4.053-11.765 6.859-17.508 1.994-4.254 3.59-8.66 5.259-13.049 2.673-6.91 5.537-13.744 8.374-20.588l3.59-8.68.888-2.146 4.187-10.324.781-1.97 2.064-5.252c1.22-3.026 2.562-5.986 3.925-8.95 2.683-5.86 5.13-11.8 7.542-17.776l1.379-3.398 4.332-10.692 18.637-45.106 9.301-22.707 2.441-6.18 1.026-2.609c.895-2.154 1.927-4.25 2.97-6.336h53l-16.312 39.063-3.301 7.863-.837 1.994-5.205 12.436-3.503 8.38-1.652 3.958c-2.937 7.047-5.953 14.04-9.14 20.977-1.254 2.78-2.366 5.594-3.425 8.453-3.725 9.84-7.615 19.648-12.062 29.188-2.791 6.016-5.178 12.187-7.616 18.352-2.101 5.288-4.324 10.482-6.735 15.637-2.024 4.511-3.792 9.124-5.586 13.73-1.236 3.1-2.602 6.126-4 9.156-2.76 6.021-5.205 12.148-7.625 18.313-2.786 7.097-5.68 14.098-8.875 21.021-1.492 3.287-2.815 6.614-4.125 9.979a225.07 225.07 0 0 1-5.379 12.695c-2.74 5.977-5.158 12.06-7.559 18.18-3.051 7.713-6.193 15.303-9.766 22.789-1.902 4.159-3.472 8.432-5.082 12.711-1.868 4.805-4.037 9.455-6.215 14.125l-2.812 6.188L296 349c-3-1-3-1-4.072-3.139l-.979-2.83-1.119-3.176-1.143-3.355-1.107-3.168-2.32-6.686-15.073-42.209-1.067-2.934-13.162-35.563c-2.882-7.643-5.565-15.35-8.222-23.074-2.007-5.822-4.137-11.573-6.393-17.303-2.263-5.999-4.313-12.072-6.402-18.133a451.16 451.16 0 0 0-6.594-17.855c-2.267-6.013-4.33-12.098-6.406-18.18-2.133-6.211-4.442-12.322-6.941-18.395l-.775 2.098L205 160l-1.18 3.183-14.84 38.588c-2.424 6.108-4.714 12.243-6.875 18.448-3.149 9.035-6.605 17.939-10.105 26.844l-16.881 44.591c-7 19.265-14.494 38.319-22.119 57.346l-3-1a89.09 89.09 0 0 1-3.301-7.617l-.948-2.399-3.063-7.859-2.145-5.45-4.393-11.195-8.765-22.024-4.334-10.827-.812-2.03-4.571-11.446-11.437-28.208-6.903-17.501-7.203-18.193-.795-1.987-9.205-22.638c-2.306-5.541-4.44-11.13-6.505-16.765-3.133-8.415-6.652-16.678-10.13-24.955-2.569-6.143-5.043-12.302-7.353-18.546-3.226-8.714-6.718-17.314-10.227-25.918l-17.345-43.37C7.802 41.987 4.963 34.94 1.928 27.967.522 24.661 0 22.678 0 19h52l6.813 17.75 14.984 38.533 12.606 32.61 14.566 37.017 7.685 19.83L118 189l3.563 9.125.869 2.228 6.703 17.786c1.012 3.176 1.012 3.176 2.865 5.861l.961-2.805c5.627-16.257 11.824-32.316 18.289-48.258 1.967-4.874 3.779-9.784 5.5-14.75 5.032-14.513 10.645-28.837 16.438-43.062 2.629-6.502 4.923-13.099 7.21-19.726 2.161-6.228 4.519-12.333 7.009-18.438 2.283-5.623 4.408-11.308 6.558-16.983l5.785-14.997a590.28 590.28 0 0 0 8.11-21.901c2.236-6.417 4.654-12.755 7.14-19.08zm922.75 8.688l2.267.007c11.244.052 22.05.522 32.983 3.306l2.474.602c19.802 4.905 36.852 12.68 53.526 24.398l1.904 1.337c7.104 5.04 7.104 5.04 10.096 7.663v2l1.704.723c4.873 2.71 8.576 7.231 12.483 11.152l2.811 2.762 2.67 2.668 2.446 2.437c1.842 2.206 2.656 3.416 2.886 6.258-1.312 1.75-1.312 1.75-3 3h-2v2c-1.293 1.27-1.293 1.27-3.187 2.813-4.768 4.024-9.09 8.433-13.419 12.919-1.429 1.459-2.907 2.868-4.394 4.268h-2v2h-2v2h-2v2c-3.729-1.522-5.806-3.74-8.437-6.75l-2.375-2.699-5.125-6.113c-1.827-2.484-1.827-2.484-4.062-3.437v-2l-1.75-.812c-2.306-1.217-4.271-2.491-6.25-4.187v-2l-2-.625c-2.638-1.209-4.328-2.343-6.562-4.125C1176.031 59.835 1146.024 56.665 1120 60c-27.133 4.522-49.432 17.959-68 38l-1 2h-2l-.77 2.199c-1.31 2.982-2.885 5.077-4.918 7.613-7.701 10.384-11.99 22.789-15.312 35.188l-.648 2.418c-4.087 16.731-3.567 35.779-.352 52.582l.625 3.578c1.476 7.752 3.795 14.407 7.375 21.422l1.035 2.176c2.044 4.263 4.404 8.217 7.012 12.16C1044 241 1044 241 1044 243h2c1.656 1.828 1.656 1.828 3.5 4.25l1.844 2.391c1.454 2.071 2.604 4.065 3.656 6.359h2v2l1.703.781c2.564 1.36 4.749 2.947 7.047 4.719l2.422 1.844L1070 267v2l2.16.766c3.094 1.345 5.536 3.022 8.277 4.984 6.536 4.397 13.159 7.597 20.563 10.25l1.976.74c18.738 6.778 44.417 7.792 63.024.26l1.935-.731c22.757-8.638 41.506-24.729 52.788-46.417 3.737-8.343 5.487-16.902 7.277-25.852h-77v-45h129c0 41.824-2.594 76.166-27 110l-1.898 2.707c-1.302 1.813-2.69 3.564-4.102 5.293h-2l-.637 1.605c-1.906 3.347-4.525 5.947-7.176 8.707-3.253 3.39-6.262 6.698-8.887 10.605L1226 310h-3v2h-4l-.625 1.875c-1.923 2.972-4.06 3.11-7.375 4.125-1.021.979-2.021 1.98-3 3-3.758 2.159-5.6 3-10 3l-1 2-2-1-1 3c-1.751.49-3.51.956-5.289 1.332-3.482.858-6.829 2.051-10.211 3.23-5.2 1.786-10.011 3.031-15.5 3.438l-2.28.503c-5.923 1.082-12.084.741-18.095.747l-2.234.003c-38.045-.035-72.294-9.584-102.391-33.253l-1.715-1.333c-6.692-5.215-6.692-5.215-9.285-7.667v-2h-2v-2l-1.937-.812C1021 289 1021 289 1020 286h-2c-5-5.476-5-5.476-5-8h-2l-2-5h-2a101.71 101.71 0 0 1-4.187-6.25l-1.212-1.93L998 259l-1.937-3.109C985.764 238.88 980.437 220.435 977 201l-.521-2.61c-.609-4.314-.68-8.546-.717-12.898l-.024-2.79-.032-5.855-.062-5.869c-.269-17.712 2.222-34.017 7.357-50.978h2l-.129-2.148c.382-8.459 5.882-16.419 10.449-23.27 1.505-2.314 2.792-4.631 4.055-7.082 18.232-32.841 57.147-58.924 92.755-69.109 15.103-4.037 30.027-5.784 45.62-5.703zM750 19c119.378 0 119.378 0 148 25v2h2v2h2v2h2c18.751 20.851 22.214 46.049 21 73-1.765 20.295-10.947 37.537-25 52l-1.703 1.891C887.841 188.159 873.714 194.499 859 198c0 2.589.83 3.385 2.352 5.465l1.559 2.145 1.715 2.328 1.767 2.424 14.438 19.591 12.844 17.918 11.116 15.404 10.585 14.539 1.644 2.278 6.647 9.221c14.36 20.072 14.36 20.072 29.333 39.687l-1 2c-7.282.538-14.56.944-21.858 1.192-3.392.119-6.771.279-10.155.543-21.799 1.575-21.799 1.575-28.758-3.925-4.898-5.417-8.413-11.485-11.722-17.964-2.188-4.132-4.842-7.871-7.57-11.659l-2.41-3.52L860 282l-3.184-4.543-1.596-2.278-23.354-33.495-5.323-7.625-3.043-4.371-1.403-1.993C819 223.227 819 223.227 819 221h-2c-1.382-1.867-2.682-3.795-3.937-5.75L809 209l-1.254-2.328c-2.317-2.551-2.317-2.551-9.746-2.672v127h-48V19zm48 45v98c37.315.481 37.315.481 69.027-16.945 9.143-9.858 11.332-20.189 11.348-33.305l.074-3.238c.04-11.057-2.915-19.781-10.105-28.219-7.793-7.625-17.632-12.111-28.281-13.918l-2.014-.367C824.495 63.589 812.227 64 798 64zM562 0h2l3 6 .943 1.886 5.154 10.309 8.294 16.551 12.54 25.759 9.152 18.638c2.567 5.097 4.998 10.252 7.418 15.42 2.649 5.648 5.385 11.212 8.375 16.688 3.274 6.009 6.261 12.128 9.188 18.313l13.625 27.875.988 1.972 8.637 17.177 13.258 27.198 9.633 19.6c2.359 4.684 4.589 9.421 6.797 14.178 2.454 5.278 5.024 10.453 7.813 15.563 3.984 7.309 7.549 14.801 11.114 22.321l9.226 18.836c2.376 4.718 4.624 9.488 6.848 14.28 3.215 6.919 6.692 13.662 10.336 20.363L728 332l1.227 2.23C730 336 730 336 730 339l-12.836-2.836c-3.328-.772-6.649-1.435-10.016-2.016-7.296-1.412-12.928-2.739-17.291-9.096-1.596-2.63-3.092-5.311-4.594-7.995-2.212-3.603-4.965-6.714-7.763-9.871l-1.669-1.89c-8.373-9.46-8.373-9.46-17.999-17.552-3.647-3.536-4.078-6.169-4.707-11.059l-.352-2.244L652 269l1 13c-3.82-1.528-5.7-2.339-8.687-4.75-5.271-4.078-10.955-8.131-17.312-10.25-1.034-2.761-1.034-2.761-1.949-6.465l-.508-2.027c-1.778-7.211-3.333-14.474-4.864-21.741l-2.593-12.107-.53-2.459-5.244-23.826-.79-3.619c-1.454-6.341-3.319-12.016-6.146-17.874-1.546-3.235-2.939-6.515-4.322-9.823l-.772-1.846-1.588-3.806-3.398-8.131-2.607-6.235-7.627-18.165-1.284-3.061c-3.1-7.347-6.401-14.591-9.779-21.814l4.438 13.813.676 2.099 11.018 33.443c5.583 16.615 5.583 16.615 4.869 20.645-1.584 2.239-3.111 4.172-4.937 6.188-3.382 3.659-3.382 3.659-6.062 7.813h-2c-1.255 2.265-1.255 2.265-2 5 .84 2.208.84 2.208 2.508 4.18l1.742 2.316 1.875 2.379 3.57 4.68 1.724 2.261c2.129 2.942 3.866 5.986 5.581 9.185l-1.723-.586c-4.731-1.595-9.465-3.083-14.277-4.414-8.258 6.881-10.049 18.155-12.75 28.125l-.957 3.477L564 253h-2l-.655-2.412-2.488-9.002-1.573-5.754c-2.868-10.983-2.868-10.983-8.283-20.832-2.403-1.407-2.403-1.407-5-2-3.12.875-3.12.875-6.187 2.438-1.915.904-3.849 1.771-5.812 2.563l-2-1 1.941-2.676c5.271-7.301 10.332-14.656 15.059-22.324l-1.146-1.313-5.167-5.937-1.803-2.066-1.748-2.012-1.603-1.841c-1.594-1.902-3.135-3.78-4.534-5.831.188-1.98.188-1.98 1-4.187l.934-2.715L534 163l1.498-5.252c2.931-10.379 6.397-20.585 9.848-30.8L553 103l-16.625 38.75-.841 2.01L530 157l-4.5 10.75-.877 2.104-.841 2.005-.843 2.016c-.671 1.518-1.389 3.016-2.137 4.498-3.657 7.393-5.428 14.85-7.025 22.875l-2.538 12.132-1.095 5.2-.564 2.677-1.177 5.591-3.779 17.348-1.203 5.59-1.733 7.841-.461 2.35c-1.067 4.428-2.284 6.46-6.191 8.915L491 271l-6.25 4.125-3.016 2.008A150.76 150.76 0 0 0 475 282l-2-1 2-18c-.746 11.433-1.715 20.868-10.264 29.123-2.935 2.566-5.909 5.056-9.012 7.417-1.974 1.535-1.974 1.535-3.724 4.46h-2l-.773 1.719c-1.371 2.55-2.994 4.561-4.852 6.781-3.879 4.704-7.001 9.647-10.027 14.934-3.331 3.641-6.652 4.374-11.348 5.566l-3.022.804-9.853 2.446-3.414.852-3.266.789-2.953.72C398 339 398 339 395 338c4.477-9.658 9.045-19.234 14.063-28.625a401.09 401.09 0 0 0 10.052-20.197l6.51-13.491.954-1.897 2.137-4.242L437 253.063l.929-1.852 11.382-23.548c2.025-4.347 4.207-8.578 6.501-12.788 3.339-6.132 6.386-12.378 9.375-18.687 6.767-14.285 13.872-28.397 20.992-42.508l11.258-23.055 17.424-35.31 11.363-23.401c3.129-6.72 6.449-13.339 9.789-19.956l4.799-9.583 1.98-3.961 1.056-2.112L562 0zm-5 90l1 2zm-1 3l1 2zm-1 2l1 3zm15 1l1 2zm1 2l1 3zm76 144l1 2zm1 4l1 4zm-171 1l1 4zm-1 4v5h1v-5h-1zm173 2l1 12h1c.082-4.161-.018-7.947-1-12h-1z"/></svg>