<svg width="890" height="211" viewBox="0 0 890 211" fill="none" xmlns="http://www.w3.org/2000/svg">
<path d="M210.08 0V37.51H56.7101C51.6276 37.5467 46.7637 39.5827 43.1707 43.1776C39.5776 46.7725 37.5441 51.6375 37.5101 56.72V76.21H172.51V113.72H37.2101V210.05H0.000107645V56.72C-0.0291238 41.7199 5.89616 27.3214 16.4747 16.6866C27.0532 6.05187 41.4201 0.0503164 56.4201 0H210.08Z" fill="white"/>
<path d="M250.87 105.04C250.896 122.939 258.019 140.098 270.675 152.755C283.332 165.411 300.491 172.534 318.39 172.56H385.91V132.34H318.39V94.83H423.39V210.07H318.39C290.533 210.07 263.817 199.004 244.119 179.306C224.421 159.608 213.355 132.892 213.355 105.035C213.355 77.178 224.421 50.4619 244.119 30.764C263.817 11.0662 290.533 0 318.39 0H423.39V37.51H318.39C300.49 37.5391 283.331 44.6635 270.675 57.3218C258.018 69.9802 250.896 87.1398 250.87 105.04Z" fill="white"/>
<path d="M487.94 105.04C487.967 122.939 495.089 140.098 507.745 152.755C520.402 165.411 537.561 172.534 555.46 172.56H660.46V210.07H555.46C527.603 210.07 500.887 199.004 481.189 179.306C461.491 159.608 450.425 132.892 450.425 105.035C450.425 77.178 461.491 50.4619 481.189 30.764C500.887 11.0662 527.603 0 555.46 0H660.46V37.51H555.46C537.56 37.5391 520.401 44.6635 507.745 57.3218C495.088 69.9802 487.967 87.1398 487.94 105.04Z" fill="white"/>
<path d="M851.65 58.21V57.01C851.613 51.9275 849.577 47.0636 845.982 43.4706C842.387 39.8775 837.523 37.844 832.44 37.81H747.22C742.137 37.844 737.273 39.8775 733.678 43.4706C730.083 47.0636 728.047 51.9275 728.01 57.01V58.21C728.047 63.2935 730.082 68.1584 733.677 71.7531C737.272 75.3477 742.137 77.3834 747.22 77.42H822.84C832.051 77.4023 841.163 79.3153 849.589 83.0357C858.015 86.7561 865.568 92.2013 871.76 99.02C872.66 99.92 873.26 100.82 874.16 101.72C882.112 111.437 887.144 123.211 888.668 135.675C890.193 148.138 888.149 160.778 882.774 172.125C877.399 183.473 868.913 193.062 858.304 199.777C847.694 206.492 835.396 210.058 822.84 210.06H757.08C739.492 210.055 722.627 203.066 710.191 190.63C697.754 178.193 690.765 161.328 690.76 143.74H728.27C728.27 151.382 731.305 158.711 736.708 164.115C742.11 169.52 749.438 172.557 757.08 172.56H822.8C826.583 172.56 830.33 171.815 833.825 170.367C837.321 168.919 840.496 166.797 843.172 164.122C845.847 161.447 847.969 158.271 849.417 154.775C850.865 151.28 851.61 147.533 851.61 143.75C851.61 139.967 850.865 136.22 849.417 132.725C847.969 129.23 845.847 126.054 843.172 123.378C840.496 120.703 837.321 118.581 833.825 117.133C830.33 115.685 826.583 114.94 822.8 114.94H747.22C732.539 114.989 718.425 109.276 707.91 99.03C705.185 96.3027 702.767 93.2847 700.7 90.03C694.177 80.5993 690.72 69.3867 690.8 57.92V56.72C690.771 41.7199 696.696 27.3214 707.275 16.6866C717.853 6.05187 732.22 0.0503164 747.22 0H832.44C847.471 0.0395934 861.875 6.02818 872.503 16.6567C883.132 27.2852 889.12 41.6891 889.16 56.72V57.92L851.65 58.21Z" fill="white"/>
</svg>
