<?xml version="1.0" encoding="utf-8"?>
<!DOCTYPE svg PUBLIC "-//W3C//DTD SVG 1.0//EN" "http://www.w3.org/TR/2001/REC-SVG-20010904/DTD/svg10.dtd">
<svg version="1.0" xmlns="http://www.w3.org/2000/svg" viewBox="0 0 573 573" preserveAspectRatio="xMidYMid meet">
 <g fill="#000000">
  <path d="M102.7 472.3 c-2.7 -2.6 -3.2 -1.7 119 -248.8 27.2 -55 52 -105.3 55 -111.7 5.5 -11.6 5.7 -11.8 8.9 -11.8 2.8 0 3.8 0.6 5.7 3.8 1.3 2 28.1 56.1 59.7 120.2 31.5 64.1 71.2 144.6 88.2 178.9 33 66.9 34.3 70.1 28 70.1 -3.9 0 -36.8 -6.7 -39.2 -8 -1 -0.6 -3.8 -4.3 -6.1 -8.3 -5.2 -8.9 -17.1 -22.9 -27.6 -32.3 -4.3 -4 -8.7 -8.8 -9.8 -10.8 -1.3 -2.3 -2.7 -3.6 -4 -3.6 -1.1 0 -4 -1.4 -6.5 -3.1 -2.5 -1.6 -7.2 -4.4 -10.5 -6.1 -8.2 -4.1 -11.3 -7.3 -13 -13.3 -0.8 -2.7 -4.6 -20.5 -8.4 -39.5 -3.9 -19 -7.5 -36.3 -8.2 -38.5 -1.4 -5.2 -14.1 -35.7 -14.5 -35.2 -0.3 0.2 0.3 2.3 1.1 4.7 0.8 2.3 1.5 6.7 1.5 9.7 0 5.2 -0.2 5.6 -7.6 14.3 l-7.6 8.9 8.1 11.1 c6.5 8.8 8.1 11.7 8.1 14.5 0 3.3 -0.2 3.5 -3.5 3.5 -2 0 -5.3 -0.9 -7.5 -2 -5 -2.5 -6.2 -2.5 -8.7 0.3 -3.6 3.9 -6 9.8 -9.8 24.5 l-3.8 14.2 -3.3 0 c-3.3 0 -3.4 -0.1 -5.8 -8.2 -1.4 -4.6 -3.2 -11.2 -4.2 -14.6 -1.9 -7.2 -8.6 -18.2 -10.9 -18.2 -0.9 0 -3.3 0.9 -5.5 2 -2.2 1.1 -5.3 2 -7 2 -2.8 0 -3 -0.2 -3 -3.8 0 -4 0.3 -4.6 9.2 -16.5 3.3 -4.4 5.8 -8.3 5.6 -8.7 -0.2 -0.5 -3.4 -4.5 -7.3 -9 -6.9 -8 -7 -8.3 -7.5 -14.8 l-0.5 -6.7 -5.2 13 c-2.8 7.2 -6.3 17.1 -7.7 22 -2.8 10 -11.4 48.1 -14.5 64.9 -1.1 6 -2.7 11.9 -3.6 13.2 -0.9 1.3 -4.4 3.7 -8 5.3 -3.5 1.6 -8.5 4.5 -11.1 6.5 -2.8 2.1 -5.8 3.6 -7.5 3.6 -2 0 -3 0.6 -3.5 2.3 -0.4 1.2 -6.2 7.8 -12.8 14.7 -13.7 14 -22.3 24.4 -25.5 30.7 -1.2 2.4 -3.1 4.9 -4.4 5.7 -2.7 1.8 -34.6 9.6 -39.2 9.6 -1.7 0 -3.5 -0.3 -3.8 -0.7z"/>
 </g>
 <g fill="#ffffff">
  <path d="M52 572 c-23.3 -3 -43.3 -20.8 -49.7 -44.1 -1.7 -6 -1.8 -20.1 -1.8 -241.9 0 -225.8 0.1 -235.7 1.8 -241.5 6.5 -20.9 22.3 -36.6 42.8 -42.2 6 -1.7 20.1 -1.8 241.9 -1.8 225.8 0 235.7 0.1 241.5 1.8 20.9 6.5 36.6 22.3 42.2 42.8 1.7 6 1.8 20.1 1.8 241.9 0 225.8 -0.1 235.7 -1.8 241.5 -6.4 20.7 -21.8 36.1 -42.3 42.2 -5.6 1.7 -18.9 1.8 -238.4 1.9 -127.9 0.1 -235 -0.2 -238 -0.6z m71.6 -106.1 c9.3 -2.2 17.9 -4.7 19.1 -5.5 1.3 -0.8 3.2 -3.3 4.4 -5.7 3.2 -6.3 11.9 -16.7 25.5 -30.7 13.6 -14 13.3 -13.5 15.9 -31.4 2.2 -15 7.6 -46.5 8.6 -49.6 0.6 -2.2 0.7 -2.1 0.8 1.2 0.1 4.4 -3.5 32.4 -4.9 38.5 -1.5 6.7 -3.4 23.2 -2.7 24 0.4 0.3 2.6 -0.8 5 -2.6 2.3 -1.8 7.5 -4.8 11.4 -6.7 4 -1.9 8 -4.5 8.8 -5.7 0.8 -1.3 2.8 -9.1 4.4 -17.3 5.4 -27.3 12.3 -56.8 16.1 -68.4 2.1 -6.3 11.9 -30.6 21.8 -54 9.9 -23.4 19.2 -45.9 20.8 -50 2.3 -6.3 2.9 -7.1 3.7 -5.3 0.6 1.5 0.2 3.7 -1.8 8.4 -4.9 11.7 -27.5 80.3 -27.5 83.4 0 2.3 1.8 5 7.5 11.5 4.1 4.7 7.8 9.6 8.2 10.9 0.7 2.8 0.2 3.8 -8.5 15.5 -8.5 11.6 -8.7 12.2 -2.1 9.1 3 -1.4 6.4 -2.5 7.7 -2.5 5.4 0 10.8 9.1 15.7 26.4 2 7.1 4 13.6 4.4 14.4 0.5 0.8 2.2 -4 4.5 -13 4 -14.9 6.9 -22 10.5 -25.2 2.8 -2.5 8.8 -2.3 14.2 0.5 2.3 1.1 4.3 1.8 4.6 1.6 0.2 -0.3 -3.4 -5.8 -8.1 -12.2 -4.7 -6.5 -8.6 -12.6 -8.6 -13.6 0 -1 3.6 -6.2 8 -11.4 4.4 -5.3 8 -10.4 8 -11.6 0 -1.2 -5.6 -19.5 -12.5 -40.9 -6.9 -21.3 -12.5 -39.2 -12.5 -39.9 0 -0.6 -0.3 -1.1 -0.8 -1.1 -0.9 0 -4.7 -12.9 -4 -13.6 0.6 -0.6 4.4 7.2 6.8 14.1 1 2.8 10.1 24.7 20.4 48.7 10.2 24.1 19.2 46.2 20.1 49 0.9 2.9 4.7 20.8 8.6 39.8 3.8 19 7.6 36.8 8.4 39.5 1.7 6 4.8 9.2 13 13.3 3.3 1.7 8 4.5 10.5 6.1 l4.5 3.1 0.3 -3.8 c0.1 -2 -0.4 -8.2 -1.3 -13.7 -5.8 -38.4 -7.4 -51.8 -6 -50.4 0.9 1 8.5 44.9 10.5 61.3 1.2 9.7 2.9 12.6 12.6 21.3 10 8.9 22.1 23.1 27.3 32 2.3 4 5.1 7.7 6.1 8.3 2.3 1.2 35.3 8 35.9 7.4 0.2 -0.2 -12.3 -26.2 -27.9 -57.6 -15.5 -31.5 -55.3 -112.2 -88.3 -179.3 -33 -67.1 -61.2 -123.8 -62.5 -125.9 l-2.4 -3.9 -19.4 39.4 c-10.7 21.7 -38.1 77.2 -61 123.4 -89.6 181.4 -100.2 203 -99.7 203.8 0.6 0.9 -1.2 1.3 17.9 -3.4z"/>
 </g>
</svg>