<svg xmlns="http://www.w3.org/2000/svg" viewBox="0 0 1073 1073"><defs><style>.cls-1{fill:#1c2021;}.cls-2{fill:#fff;}.cls-3{fill:#e74c3c;}</style></defs><title>window_loading_icon</title><g id="Layer_2" data-name="Layer 2"><g id="Layer_2-2" data-name="Layer 2"><rect class="cls-1" width="1073" height="1073" rx="106.88" ry="106.88"/><path class="cls-2" d="M302,770.79V808.3H148.63a19.34,19.34,0,0,0-19.2,19.21V847h135v37.51H129.13v96.33H91.92V827.51a56.61,56.61,0,0,1,56.42-56.72Z"/><path class="cls-2" d="M342.79,875.83a67.62,67.62,0,0,0,67.52,67.52h67.52V903.13H410.31V865.62h105V980.86h-105a105,105,0,0,1,0-210.07h105V808.3h-105A67.63,67.63,0,0,0,342.79,875.83Z"/><path class="cls-2" d="M579.86,875.83a67.62,67.62,0,0,0,67.52,67.52h105v37.51h-105a105,105,0,0,1,0-210.07h105V808.3h-105A67.63,67.63,0,0,0,579.86,875.83Z"/><path class="cls-2" d="M943.57,829v-1.2a19.34,19.34,0,0,0-19.21-19.2H839.14a19.34,19.34,0,0,0-19.21,19.2V829a19.35,19.35,0,0,0,19.21,19.21h75.62a65.91,65.91,0,0,1,48.92,21.6c.9.9,1.5,1.8,2.4,2.7a66.33,66.33,0,0,1-51.32,108.34H849a66.34,66.34,0,0,1-66.32-66.32h37.51A28.82,28.82,0,0,0,849,943.35h65.72a28.81,28.81,0,1,0,0-57.62H839.14a56.06,56.06,0,0,1-39.31-15.91,52.71,52.71,0,0,1-7.21-9,55.76,55.76,0,0,1-9.9-32.11v-1.2a56.61,56.61,0,0,1,56.42-56.72h85.22a56.87,56.87,0,0,1,56.72,56.72v1.2Z"/><g id="body"><path class="cls-2" d="M377.64,511.57a15.19,15.19,0,0,1-13.07-22.73l31.28-54.33a196.22,196.22,0,0,0,0-195.2L364.57,185a15.13,15.13,0,0,1,20.67-20.67l54.33,31.28a196.22,196.22,0,0,0,195.2,0l54.33-31.28A15.13,15.13,0,0,1,709.77,185l-31.28,54.33a196.22,196.22,0,0,0,0,195.2l31.28,54.33a15.14,15.14,0,0,1-20.67,20.67l-54.33-31.28a196.22,196.22,0,0,0-195.2,0l-54.33,31.28A15.24,15.24,0,0,1,377.64,511.57Zm0-340.74a6.55,6.55,0,0,0-4.58,2,6.31,6.31,0,0,0-1,7.87L403.31,235a204.83,204.83,0,0,1,0,203.79L372,493.13a6.53,6.53,0,0,0,8.91,8.92l54.34-31.28a204.83,204.83,0,0,1,203.79,0l54.33,31.28a6.53,6.53,0,0,0,8.91-8.92L671,438.8A204.88,204.88,0,0,1,671,235l31.28-54.33a6.52,6.52,0,0,0-8.91-8.91l-54.33,31.28-2.15-3.73,2.15,3.73a204.88,204.88,0,0,1-203.79,0l-54.34-31.28A6.55,6.55,0,0,0,377.65,170.83Z"/></g><g id="rotors"><path class="cls-3" d="M702.12,598.86a4.3,4.3,0,0,1-.23-8.6A92.55,92.55,0,0,0,744.65,577a4.31,4.31,0,0,1,4.47,7.36,101.23,101.23,0,0,1-46.75,14.5Zm-46-8.73a4.28,4.28,0,0,1-1.8-.4,102,102,0,0,1-35.51-27.33,4.3,4.3,0,0,1,6.62-5.5,93.43,93.43,0,0,0,32.5,25,4.3,4.3,0,0,1-1.81,8.21ZM779.88,551.7a4.31,4.31,0,0,1-3.69-6.51,92.64,92.64,0,0,0,12.89-42.88,4.3,4.3,0,0,1,8.6.41,101.21,101.21,0,0,1-14.1,46.88A4.29,4.29,0,0,1,779.88,551.7Zm4.38-90.85a4.31,4.31,0,0,1-3.9-2.47A93.21,93.21,0,0,0,752,423.7a4.3,4.3,0,0,1,5.15-6.89,101.87,101.87,0,0,1,31,37.89,4.32,4.32,0,0,1-3.89,6.15Z"/><path class="cls-3" d="M372.72,597.38h-.21a101.13,101.13,0,0,1-46.87-14.1,4.3,4.3,0,1,1,4.41-7.39,92.53,92.53,0,0,0,42.87,12.89,4.3,4.3,0,0,1-.2,8.6Zm46-9.12a4.3,4.3,0,0,1-1.84-8.19,93.23,93.23,0,0,0,34.68-28.36,4.3,4.3,0,0,1,6.89,5.15,101.71,101.71,0,0,1-37.9,31A4.24,4.24,0,0,1,418.69,588.26ZM294.56,550.89a4.31,4.31,0,0,1-3.68-2.07,101.07,101.07,0,0,1-14.5-46.75,4.3,4.3,0,1,1,8.59-.48,92.54,92.54,0,0,0,13.26,42.76,4.29,4.29,0,0,1-1.44,5.91A4.24,4.24,0,0,1,294.56,550.89Zm-5.16-90.8a4.31,4.31,0,0,1-3.9-6.12,102.14,102.14,0,0,1,27.33-35.51,4.3,4.3,0,1,1,5.49,6.63,93.43,93.43,0,0,0-25,32.5A4.31,4.31,0,0,1,289.4,460.09Z"/><path class="cls-3" d="M320.94,259a4.3,4.3,0,0,1-2.58-.86,101.84,101.84,0,0,1-31-37.89,4.3,4.3,0,0,1,7.78-3.68,93.23,93.23,0,0,0,28.36,34.68,4.3,4.3,0,0,1-2.58,7.75Zm-38.79-82.26h-.21a4.31,4.31,0,0,1-4.09-4.51,101.19,101.19,0,0,1,14.09-46.87,4.31,4.31,0,0,1,7.4,4.41,92.48,92.48,0,0,0-12.89,42.87A4.31,4.31,0,0,1,282.15,176.72Zm171.31-57.14a4.28,4.28,0,0,1-3.32-1.55,93.31,93.31,0,0,0-32.49-25,4.3,4.3,0,1,1,3.61-7.81,102,102,0,0,1,35.51,27.33,4.3,4.3,0,0,1-.57,6.06A4.24,4.24,0,0,1,453.46,119.58Zm-124.81-21a4.3,4.3,0,0,1-2.24-8,101.19,101.19,0,0,1,46.75-14.5,4.31,4.31,0,0,1,.48,8.6,92.39,92.39,0,0,0-42.76,13.26A4.32,4.32,0,0,1,328.65,98.56Z"/><path class="cls-3" d="M760,257.46a4.3,4.3,0,0,1-2.75-7.61,93.43,93.43,0,0,0,25-32.5A4.3,4.3,0,1,1,790,221a102,102,0,0,1-27.33,35.51A4.29,4.29,0,0,1,760,257.46Zm34.9-80a4.32,4.32,0,0,1-4.3-4.07,92.43,92.43,0,0,0-13.26-42.76,4.31,4.31,0,0,1,7.36-4.47,101.23,101.23,0,0,1,14.5,46.75,4.31,4.31,0,0,1-4.06,4.54ZM620.55,125a4.3,4.3,0,0,1-3.44-6.88,101.79,101.79,0,0,1,37.89-31,4.31,4.31,0,0,1,3.68,7.79A93.21,93.21,0,0,0,624,123.22,4.31,4.31,0,0,1,620.55,125Zm127.13-25.3a4.3,4.3,0,0,1-2.2-.61,92.6,92.6,0,0,0-42.87-12.89,4.3,4.3,0,1,1,.4-8.6,101.21,101.21,0,0,1,46.88,14.1,4.3,4.3,0,0,1-2.21,8Z"/></g><g id="wings_bot" data-name="wings bot"><path class="cls-2" d="M403.55,356.65v.09a4.24,4.24,0,0,1-4.24,3.91h-77a4.26,4.26,0,0,1-4.26-4.26v-.08a4.27,4.27,0,0,1,4.26-4.27h77A4.27,4.27,0,0,1,403.55,356.65Z"/><path class="cls-2" d="M754.94,356.31v.08a4.26,4.26,0,0,1-4.26,4.26H675a4.25,4.25,0,0,1-4.25-3.91v-.09A4.28,4.28,0,0,1,675,352h75.65A4.27,4.27,0,0,1,754.94,356.31Z"/></g><g id="wings_mid" data-name="wings mid"><path class="cls-2" d="M404.31,336.9v.15a4.24,4.24,0,0,1-4.26,4.23H270.67a4.26,4.26,0,0,1-4.26-4.26v-.08a4.26,4.26,0,0,1,4.26-4.26H400.05A4.24,4.24,0,0,1,404.31,336.9Z"/><path class="cls-2" d="M806.59,336.94V337a4.26,4.26,0,0,1-4.26,4.26h-128a4.24,4.24,0,0,1-4.26-4.23v-.15a4.24,4.24,0,0,1,4.26-4.22h128A4.26,4.26,0,0,1,806.59,336.94Z"/></g><g id="wings_top" data-name="wings top"><path class="cls-2" d="M399.32,321.92H219a4.27,4.27,0,0,1-4.26-4.27v-.08a4.26,4.26,0,0,1,4.26-4.26H399.31a4.25,4.25,0,0,1,4.25,3.89v.09A4.28,4.28,0,0,1,399.32,321.92Z"/><path class="cls-2" d="M858.24,317.57v.08a4.27,4.27,0,0,1-4.26,4.27H675a4.28,4.28,0,0,1-4.25-4.63v-.09a4.25,4.25,0,0,1,4.25-3.89H854A4.26,4.26,0,0,1,858.24,317.57Z"/></g></g></g></svg>
