<svg width="401" height="401" viewBox="0 0 401 401" fill="none" xmlns="http://www.w3.org/2000/svg">
<path d="M301.333 200.333C301.333 242.269 267.37 276.271 225.448 276.333C225.41 276.333 175.372 276.333 175.334 276.333C133.36 276.333 99.334 242.307 99.334 200.333C99.334 158.359 133.36 124.333 175.334 124.333C175.361 124.333 225.39 124.333 225.417 124.333C267.352 124.377 301.333 158.387 301.333 200.333Z" fill="url(#paint0_linear_417_32)"/>
<path d="M99.667 200.457H301.667" stroke="white" stroke-width="2" stroke-miterlimit="10"/>
<path d="M187.979 187.374H212.979" stroke="white" stroke-width="2" stroke-miterlimit="10"/>
<path d="M188.167 213.499H213.167" stroke="white" stroke-width="2" stroke-miterlimit="10"/>
<path d="M188.026 241.42H213.026" stroke="white" stroke-width="2" stroke-miterlimit="10"/>
<path d="M188.167 159.374H213.167" stroke="white" stroke-width="2" stroke-miterlimit="10"/>
<path d="M180.042 173.405H220.042" stroke="white" stroke-width="2" stroke-miterlimit="10"/>
<path d="M180.042 227.499H220.042" stroke="white" stroke-width="2" stroke-miterlimit="10"/>
<path d="M170.042 255.332H230.042" stroke="white" stroke-width="2" stroke-miterlimit="10"/>
<path d="M170.042 145.333H230.042" stroke="white" stroke-width="2" stroke-miterlimit="10"/>
<path d="M166.644 169.224H168.894V177.125H167.401V170.637H165.774L166.644 169.224Z" fill="white"/>
<path d="M172.84 169.025C173.417 169.025 173.913 169.167 174.331 169.449C174.748 169.732 175.07 170.164 175.298 170.746C175.525 171.328 175.639 172.138 175.639 173.176C175.639 174.225 175.524 175.042 175.292 175.625C175.062 176.208 174.75 176.637 174.36 176.912C173.97 177.185 173.477 177.323 172.883 177.323C172.289 177.323 171.789 177.185 171.384 176.909C170.979 176.633 170.662 176.214 170.433 175.652C170.204 175.09 170.089 174.29 170.089 173.251C170.089 171.801 170.313 170.75 170.76 170.098C171.259 169.383 171.952 169.025 172.84 169.025ZM172.875 170.454C172.622 170.454 172.396 170.536 172.2 170.698C172.004 170.861 171.853 171.141 171.75 171.539C171.647 171.937 171.595 172.518 171.595 173.285C171.595 174.284 171.714 174.974 171.951 175.356C172.189 175.737 172.497 175.928 172.875 175.928C173.24 175.928 173.529 175.747 173.744 175.386C174.005 174.949 174.135 174.219 174.135 173.195C174.135 172.156 174.018 171.441 173.784 171.047C173.55 170.653 173.247 170.454 172.875 170.454Z" fill="white"/>
<path d="M155.584 143.883H154.118C154.158 143.031 154.425 142.36 154.921 141.872C155.417 141.383 156.054 141.139 156.831 141.139C157.311 141.139 157.734 141.24 158.101 141.443C158.468 141.645 158.762 141.937 158.982 142.318C159.203 142.7 159.313 143.087 159.313 143.481C159.313 143.95 159.18 144.455 158.913 144.996C158.646 145.537 158.158 146.176 157.449 146.913L156.562 147.848H159.378V149.239H153.905V148.519L156.349 146.027C156.94 145.429 157.333 144.948 157.528 144.585C157.723 144.222 157.82 143.893 157.82 143.6C157.82 143.296 157.719 143.044 157.517 142.845C157.314 142.647 157.054 142.547 156.735 142.547C156.413 142.547 156.144 142.667 155.929 142.907C155.714 143.147 155.599 143.471 155.584 143.883Z" fill="white"/>
<path d="M162.884 141.138C163.461 141.138 163.957 141.28 164.375 141.562C164.792 141.845 165.114 142.277 165.342 142.859C165.569 143.441 165.683 144.251 165.683 145.289C165.683 146.338 165.568 147.155 165.336 147.738C165.106 148.321 164.794 148.75 164.404 149.025C164.014 149.298 163.521 149.436 162.927 149.436C162.333 149.436 161.833 149.298 161.428 149.022C161.023 148.746 160.706 148.327 160.477 147.765C160.248 147.203 160.133 146.403 160.133 145.364C160.133 143.914 160.357 142.863 160.804 142.211C161.303 141.496 161.996 141.138 162.884 141.138ZM162.918 142.567C162.665 142.567 162.439 142.649 162.243 142.811C162.047 142.974 161.896 143.254 161.793 143.652C161.69 144.05 161.638 144.631 161.638 145.398C161.638 146.397 161.757 147.087 161.994 147.469C162.232 147.85 162.54 148.041 162.918 148.041C163.283 148.041 163.572 147.86 163.787 147.499C164.048 147.062 164.178 146.332 164.178 145.308C164.178 144.269 164.061 143.554 163.827 143.16C163.593 142.766 163.291 142.567 162.918 142.567Z" fill="white"/>
<path d="M234.958 143.784H233.492C233.532 142.932 233.799 142.261 234.295 141.773C234.791 141.284 235.428 141.04 236.205 141.04C236.685 141.04 237.108 141.141 237.475 141.344C237.842 141.546 238.136 141.838 238.356 142.219C238.577 142.601 238.687 142.988 238.687 143.382C238.687 143.851 238.554 144.356 238.287 144.897C238.02 145.438 237.532 146.077 236.823 146.814L235.936 147.749H238.752V149.14H233.279V148.42L235.723 145.928C236.314 145.33 236.707 144.849 236.902 144.486C237.097 144.123 237.194 143.794 237.194 143.501C237.194 143.197 237.093 142.945 236.891 142.746C236.688 142.548 236.428 142.448 236.109 142.448C235.787 142.448 235.518 142.568 235.303 142.808C235.088 143.048 234.973 143.372 234.958 143.784Z" fill="white"/>
<path d="M242.258 141.039C242.835 141.039 243.331 141.181 243.749 141.463C244.166 141.746 244.488 142.178 244.716 142.76C244.943 143.342 245.057 144.152 245.057 145.19C245.057 146.239 244.942 147.056 244.71 147.639C244.48 148.222 244.168 148.651 243.778 148.926C243.388 149.199 242.895 149.337 242.301 149.337C241.707 149.337 241.207 149.199 240.802 148.923C240.397 148.647 240.08 148.228 239.851 147.666C239.622 147.104 239.507 146.304 239.507 145.265C239.507 143.815 239.731 142.764 240.178 142.112C240.677 141.397 241.37 141.039 242.258 141.039ZM242.292 142.468C242.039 142.468 241.813 142.55 241.617 142.712C241.421 142.875 241.27 143.155 241.167 143.553C241.064 143.951 241.012 144.532 241.012 145.299C241.012 146.298 241.131 146.988 241.368 147.37C241.606 147.751 241.914 147.942 242.292 147.942C242.657 147.942 242.946 147.761 243.161 147.4C243.422 146.963 243.552 146.233 243.552 145.209C243.552 144.17 243.435 143.455 243.201 143.061C242.967 142.667 242.665 142.468 242.292 142.468Z" fill="white"/>
<path d="M224.341 169.224H226.591V177.125H225.098V170.637H223.471L224.341 169.224Z" fill="white"/>
<path d="M230.538 169.025C231.115 169.025 231.611 169.167 232.029 169.449C232.446 169.732 232.768 170.164 232.996 170.746C233.223 171.328 233.337 172.138 233.337 173.176C233.337 174.225 233.222 175.042 232.99 175.625C232.76 176.208 232.448 176.637 232.058 176.912C231.668 177.185 231.175 177.323 230.581 177.323C229.987 177.323 229.487 177.185 229.082 176.909C228.677 176.633 228.36 176.214 228.131 175.652C227.902 175.09 227.787 174.29 227.787 173.251C227.787 171.801 228.011 170.75 228.458 170.098C228.957 169.383 229.649 169.025 230.538 169.025ZM230.572 170.454C230.319 170.454 230.093 170.536 229.897 170.698C229.701 170.861 229.55 171.141 229.447 171.539C229.344 171.937 229.292 172.518 229.292 173.285C229.292 174.284 229.411 174.974 229.648 175.356C229.886 175.737 230.194 175.928 230.572 175.928C230.937 175.928 231.226 175.747 231.441 175.386C231.702 174.949 231.832 174.219 231.832 173.195C231.832 172.156 231.715 171.441 231.481 171.047C231.247 170.653 230.944 170.454 230.572 170.454Z" fill="white"/>
<path d="M166.644 223.224H168.894V231.125H167.401V224.637H165.774L166.644 223.224Z" fill="white"/>
<path d="M172.84 223.025C173.417 223.025 173.913 223.167 174.331 223.449C174.748 223.732 175.07 224.164 175.298 224.746C175.525 225.328 175.639 226.138 175.639 227.176C175.639 228.225 175.524 229.042 175.292 229.625C175.062 230.208 174.75 230.637 174.36 230.912C173.97 231.185 173.477 231.323 172.883 231.323C172.289 231.323 171.789 231.185 171.384 230.909C170.979 230.633 170.662 230.214 170.433 229.652C170.204 229.09 170.089 228.29 170.089 227.251C170.089 225.801 170.313 224.75 170.76 224.098C171.259 223.383 171.952 223.025 172.84 223.025ZM172.875 224.454C172.622 224.454 172.396 224.536 172.2 224.698C172.004 224.861 171.853 225.141 171.75 225.539C171.647 225.937 171.595 226.518 171.595 227.285C171.595 228.284 171.714 228.974 171.951 229.356C172.189 229.737 172.497 229.928 172.875 229.928C173.24 229.928 173.529 229.747 173.744 229.386C174.005 228.949 174.135 228.219 174.135 227.195C174.135 226.156 174.018 225.441 173.784 225.047C173.55 224.653 173.247 224.454 172.875 224.454Z" fill="white"/>
<path d="M224.341 223.224H226.591V231.125H225.098V224.637H223.471L224.341 223.224Z" fill="white"/>
<path d="M230.538 223.025C231.115 223.025 231.611 223.167 232.029 223.449C232.446 223.732 232.768 224.164 232.996 224.746C233.223 225.328 233.337 226.138 233.337 227.176C233.337 228.225 233.222 229.042 232.99 229.625C232.76 230.208 232.448 230.637 232.058 230.912C231.668 231.185 231.175 231.323 230.581 231.323C229.987 231.323 229.487 231.185 229.082 230.909C228.677 230.633 228.36 230.214 228.131 229.652C227.902 229.09 227.787 228.29 227.787 227.251C227.787 225.801 228.011 224.75 228.458 224.098C228.957 223.383 229.649 223.025 230.538 223.025ZM230.572 224.454C230.319 224.454 230.093 224.536 229.897 224.698C229.701 224.861 229.55 225.141 229.447 225.539C229.344 225.937 229.292 226.518 229.292 227.285C229.292 228.284 229.411 228.974 229.648 229.356C229.886 229.737 230.194 229.928 230.572 229.928C230.937 229.928 231.226 229.747 231.441 229.386C231.702 228.949 231.832 228.219 231.832 227.195C231.832 226.156 231.715 225.441 231.481 225.047C231.247 224.653 230.944 224.454 230.572 224.454Z" fill="white"/>
<path d="M155.584 253.883H154.118C154.158 253.031 154.425 252.36 154.921 251.872C155.417 251.383 156.054 251.139 156.831 251.139C157.311 251.139 157.734 251.24 158.101 251.443C158.468 251.645 158.762 251.937 158.982 252.318C159.203 252.7 159.313 253.087 159.313 253.481C159.313 253.95 159.18 254.455 158.913 254.996C158.646 255.537 158.158 256.176 157.449 256.913L156.562 257.848H159.378V259.239H153.905V258.519L156.349 256.027C156.94 255.429 157.333 254.948 157.528 254.585C157.723 254.222 157.82 253.893 157.82 253.6C157.82 253.296 157.719 253.044 157.517 252.845C157.314 252.647 157.054 252.547 156.735 252.547C156.413 252.547 156.144 252.667 155.929 252.907C155.714 253.147 155.599 253.471 155.584 253.883Z" fill="white"/>
<path d="M162.884 251.138C163.461 251.138 163.957 251.28 164.375 251.562C164.792 251.845 165.114 252.277 165.342 252.859C165.569 253.441 165.683 254.251 165.683 255.289C165.683 256.338 165.568 257.155 165.336 257.738C165.106 258.321 164.794 258.75 164.404 259.025C164.014 259.298 163.521 259.436 162.927 259.436C162.333 259.436 161.833 259.298 161.428 259.022C161.023 258.746 160.706 258.327 160.477 257.765C160.248 257.203 160.133 256.403 160.133 255.364C160.133 253.914 160.357 252.863 160.804 252.211C161.303 251.496 161.996 251.138 162.884 251.138ZM162.918 252.567C162.665 252.567 162.439 252.649 162.243 252.811C162.047 252.974 161.896 253.254 161.793 253.652C161.69 254.05 161.638 254.631 161.638 255.398C161.638 256.397 161.757 257.087 161.994 257.469C162.232 257.85 162.54 258.041 162.918 258.041C163.283 258.041 163.572 257.86 163.787 257.499C164.048 257.062 164.178 256.332 164.178 255.308C164.178 254.269 164.061 253.554 163.827 253.16C163.593 252.766 163.291 252.567 162.918 252.567Z" fill="white"/>
<path d="M234.958 253.784H233.492C233.532 252.932 233.799 252.261 234.295 251.773C234.791 251.284 235.428 251.04 236.205 251.04C236.685 251.04 237.108 251.141 237.475 251.344C237.842 251.546 238.136 251.838 238.356 252.219C238.577 252.601 238.687 252.988 238.687 253.382C238.687 253.851 238.554 254.356 238.287 254.897C238.02 255.438 237.532 256.077 236.823 256.814L235.936 257.749H238.752V259.14H233.279V258.42L235.723 255.928C236.314 255.33 236.707 254.849 236.902 254.486C237.097 254.123 237.194 253.794 237.194 253.501C237.194 253.197 237.093 252.945 236.891 252.746C236.688 252.548 236.428 252.448 236.109 252.448C235.787 252.448 235.518 252.568 235.303 252.808C235.088 253.048 234.973 253.372 234.958 253.784Z" fill="white"/>
<path d="M242.258 251.039C242.835 251.039 243.331 251.181 243.749 251.463C244.166 251.746 244.488 252.178 244.716 252.76C244.943 253.342 245.057 254.152 245.057 255.19C245.057 256.239 244.942 257.056 244.71 257.639C244.48 258.222 244.168 258.651 243.778 258.926C243.388 259.199 242.895 259.337 242.301 259.337C241.707 259.337 241.207 259.199 240.802 258.923C240.397 258.647 240.08 258.228 239.851 257.666C239.622 257.104 239.507 256.304 239.507 255.265C239.507 253.815 239.731 252.764 240.178 252.112C240.677 251.397 241.37 251.039 242.258 251.039ZM242.292 252.468C242.039 252.468 241.813 252.55 241.617 252.712C241.421 252.875 241.27 253.155 241.167 253.553C241.064 253.951 241.012 254.532 241.012 255.299C241.012 256.298 241.131 256.988 241.368 257.37C241.606 257.751 241.914 257.942 242.292 257.942C242.657 257.942 242.946 257.761 243.161 257.4C243.422 256.963 243.552 256.233 243.552 255.209C243.552 254.17 243.435 253.455 243.201 253.061C242.967 252.667 242.665 252.468 242.292 252.468Z" fill="white"/>
<defs>
<linearGradient id="paint0_linear_417_32" x1="200.333" y1="276.333" x2="200.333" y2="124.333" gradientUnits="userSpaceOnUse">
<stop stop-color="#9EBD6E"/>
<stop offset="0.4999" stop-color="#9EBD6E"/>
<stop offset="0.5" stop-color="#00B4D8"/>
<stop offset="1" stop-color="#00B4D8"/>
</linearGradient>
</defs>
</svg>
